<?xml version="1.0" encoding="utf-8"?>
<!-- Generator: Adobe Illustrator 24.3.0, SVG Export Plug-In . SVG Version: 6.00 Build 0)  -->
<svg version="1.1" id="Layer_1" xmlns="http://www.w3.org/2000/svg" xmlns:xlink="http://www.w3.org/1999/xlink" x="0px" y="0px"
	 viewBox="0 0 595.28 841.89" style="enable-background:new 0 0 595.28 841.89;" xml:space="preserve">
<style type="text/css">
	.st0{clip-path:url(#SVGID_4_);fill:#F39200;}
	.st1{fill:#FFFFFF;}
	.st2{font-family:'MyriadPro-Regular';}
	.st3{font-size:54px;}
	.st4{font-size:76px;}
	.st5{clip-path:url(#SVGID_6_);}
	.st6{letter-spacing:1;}
	.st7{font-size:150px;}
	.st8{font-size:153px;}
	.st9{fill:none;}
	.st10{font-size:60px;}
</style>
<g>
	<defs>
		<rect id="SVGID_1_" y="98.76" width="595.28" height="743.13"/>
	</defs>
	<clipPath id="SVGID_2_">
		<use xlink:href="#SVGID_1_"  style="overflow:visible;"/>
	</clipPath>
</g>
<rect width="595.28" height="841.89"/>
<g>
	<defs>
		<rect id="SVGID_3_" width="595.28" height="841.89"/>
	</defs>
	<clipPath id="SVGID_4_">
		<use xlink:href="#SVGID_3_"  style="overflow:visible;"/>
	</clipPath>
	<path class="st0" d="M617.32,314.66l-13.87-19.96l-44.86,11.18l-2.02,4.86l-2.25-1.35l-5.83-3.51l-40.51-24.37l-74.26,9.09
		l-54.85-27.26l-80.16,37.18l-18.56,16.52l-17.72,6.61h-18.56l-23.63,9.09v16.52l-7.59,5.78v28.09l13.5,6.61l10.13,9.09l11.81,4.96
		l-10.13,25.61l-25.31,62.79l-6.75,15.7l-4.22,7.44v10.74l14.34,9.91l6.75,9.09l2.53,5.78l-5.06,17.35l-18.56,26.44l-14.35,27.26
		v13.36l5.91,7.29l10.13,8.26h16.03l11.81,11.57l1.69,17.35l3.77,6.31l-2.99,12.51l-2.27,3.24c0.01,0.07,0.03,0.14,0.03,0.21
		c0,0.18-0.05,0.35-0.08,0.53c0.01,0.22,0.02,0.44,0.04,0.66c0.01,0.05,0.02,0.11,0.02,0.13c0.01,0.08,0.03,0.17,0.04,0.25
		c0.04,0.18,0.07,0.36,0.12,0.54c0.08,0.35,0.18,0.69,0.3,1.03c0.02,0.07,0.05,0.14,0.08,0.21l7.96,7.58l7.34,7.19l-7.07,13.31
		l-6.8,12.24l0.81,6.92l5.71,11.18l13.6,9.32l10.88,3.19h15.5l11.69,2.4l11.69-1.33l15.5-0.27h14.95l13.05,9.85l8.7,10.65
		l11.15,15.71l10.33,9.85l14.41,22.63h119.09l83.2-3.99l38.34-55.1l-34.11-40.73l14.53-30.35l-6.53-35.94l4.08-24.76l13.05-37.53
		l8.97-31.94l3.6-40.73V337.82L617.32,314.66z"/>
</g>
<text transform="matrix(1 0 0 1 19.2754 217.0062)" class="st1 st2 st3"> </text>
<text transform="matrix(1 0 0 1 316.1797 210.5165)" class="st1 st2 st4">29.12.72</text>
<g>
	<defs>
		<rect id="SVGID_5_" width="595.28" height="841.89"/>
	</defs>
	<clipPath id="SVGID_6_">
		<use xlink:href="#SVGID_5_"  style="overflow:visible;"/>
	</clipPath>
	<g class="st5">
		<text transform="matrix(1 0 0 1 92.3335 66.9598)"><tspan x="0" y="0" class="st1 st2 st4">Hap</tspan><tspan x="129.43" y="0" class="st1 st2 st4">p</tspan><tspan x="172.21" y="0" class="st1 st2 st4">y Bi</tspan><tspan x="283.09" y="0" class="st1 st2 st4 st6">r</tspan><tspan x="309.77" y="0" class="st1 st2 st4">thd</tspan><tspan x="419.97" y="0" class="st1 st2 st4">a</tspan><tspan x="455.99" y="0" class="st1 st2 st4">y</tspan></text>
	</g>
</g>
<text transform="matrix(1 0 0 1 19.2217 153.6825)"><tspan x="0" y="0" class="st1 st2 st4">Jude L</tspan><tspan x="202.92" y="0" class="st1 st2 st4">a</tspan><tspan x="238.94" y="0" class="st1 st2 st4">w </tspan></text>
<text transform="matrix(1 0 0 1 244.3779 448.7845)" class="st1 st2 st7">Hey</text>
<text transform="matrix(1 0 0 1 292.9136 682.2328)" class="st1 st2 st8">Jude</text>
<rect x="110.35" y="309.45" class="st9" width="33.65" height="484.44"/>
<text transform="matrix(1 0 0 1 110.3467 352.0543)"><tspan x="0" y="0" class="st1 st2 st10">B</tspan><tspan x="0" y="72" class="st1 st2 st10">e</tspan><tspan x="0" y="144" class="st1 st2 st10">a</tspan><tspan x="0" y="216" class="st1 st2 st10">t</tspan><tspan x="0" y="288" class="st1 st2 st10">l</tspan><tspan x="0" y="360" class="st1 st2 st10">e</tspan><tspan x="0" y="432" class="st1 st2 st10">s</tspan></text>
<rect x="40.57" y="237.32" class="st9" width="42.77" height="192.57"/>
<text transform="matrix(1 0 0 1 40.574 279.9153)"><tspan x="0" y="0" class="st1 st2 st10">T</tspan><tspan x="0" y="72" class="st1 st2 st10">h</tspan><tspan x="0" y="144" class="st1 st2 st10">e</tspan></text>
</svg>
